<?xml version="1.0" standalone="no"?>
<!DOCTYPE svg PUBLIC "-//W3C//DTD SVG 20010904//EN"
 "http://www.w3.org/TR/2001/REC-SVG-20010904/DTD/svg10.dtd">
<svg version="1.0" xmlns="http://www.w3.org/2000/svg"
 width="225.000000pt" height="225.000000pt" viewBox="0 0 225.000000 225.000000"
 preserveAspectRatio="xMidYMid meet">

<g transform="translate(0.000000,225.000000) scale(0.100000,-0.100000)"
fill="#000000" stroke="none">
<path d="M0 1125 l0 -1125 1125 0 1125 0 0 1125 0 1125 -1125 0 -1125 0 0
-1125z m1571 949 c69 -21 122 -74 145 -147 22 -66 32 -486 15 -622 -13 -108
-53 -200 -103 -238 -69 -53 -103 -59 -377 -64 -240 -5 -254 -7 -276 -27 -12
-11 -87 -90 -166 -175 -170 -182 -284 -283 -314 -279 -19 3 -20 11 -25 237
l-5 234 -63 13 c-121 25 -195 91 -229 203 -15 48 -17 96 -15 321 3 361 16 419
104 494 75 65 72 65 694 65 487 1 567 -1 615 -15z m409 -242 c83 -41 92 -60
101 -204 5 -68 10 -238 11 -378 3 -285 -3 -324 -64 -416 -61 -90 -131 -122
-285 -131 l-93 -6 0 -141 c0 -114 -3 -147 -18 -175 -44 -88 -72 -75 -287 140
l-181 179 -167 0 c-92 0 -167 4 -167 9 0 5 34 41 75 80 l75 71 124 0 124 0
131 -137 131 -138 0 137 0 136 174 4 c158 3 177 5 203 24 57 42 58 49 61 421
2 230 -1 350 -8 363 -6 12 -29 25 -55 31 l-45 11 0 80 0 81 53 -7 c28 -4 77
-19 107 -34z"/>
<path d="M541 1646 c-78 -44 -61 -170 27 -197 111 -33 189 111 101 185 -34 29
-88 34 -128 12z m103 -7 c38 -18 60 -71 46 -114 -23 -71 -107 -89 -161 -36
-33 33 -37 67 -14 111 25 49 75 63 129 39z"/>
<path d="M869 1631 c-57 -57 -32 -155 47 -181 70 -23 134 28 134 107 0 36 -6
50 -29 74 -24 24 -38 29 -76 29 -38 0 -52 -5 -76 -29z m142 -10 c38 -39 39
-87 3 -130 -21 -26 -33 -31 -69 -31 -36 0 -48 5 -69 31 -36 43 -35 91 3 130
22 21 39 29 66 29 27 0 44 -8 66 -29z"/>
<path d="M1227 1640 c-93 -73 -13 -227 98 -190 78 26 103 124 46 181 -37 37
-104 41 -144 9z m134 -19 c38 -39 39 -87 3 -130 -21 -26 -33 -31 -69 -31 -36
0 -48 5 -69 31 -36 43 -35 91 3 130 22 21 39 29 66 29 27 0 44 -8 66 -29z"/>
</g>
</svg>
